# xmcd
#
# Track frame offsets:
#	150
#	31313
#	62485
#	92527
#	114514
#	135117
#	159339
#	197554
#	234816
#	273031
#
# Disc length: 3912 seconds
# Revision: 0
# Processed by: cddbd v1.5.2PL0 Copyright (c) Steve Scherf et al.
# Submitted via: dBpowerAMP V12.0
#
DISCID=690f460a
DTITLE=Jesse McCartney feat. T-Pain - Body Language [The Remixes]
DYEAR=2009
DGENRE=House
TTITLE0=Body Language [The Element Club - No Rap]
TTITLE1=Body Language [The Element Club]
TTITLE2=Body Language [The Bimbo Jones Dub]
TTITLE3=Body Language [The Element Extended Radio Edit - No Rap]
TTITLE4=Body Language [The Element Radio Edit]
TTITLE5=Body Language [The Element Extended Radio Edit]
TTITLE6=Body Language [DJ Mike Cruz Tribal Vox Mix (No Drop)]
TTITLE7=Body Language [DJ Mike Cruz Tribal Vox (No Drop Mix)]
TTITLE8=Body Language [DJ Mike Cruz Dubamental]
TTITLE9=Body Language [DJ Mike Cruz Radio Edit]
EXTD=
EXTT0=
EXTT1=
EXTT2=
EXTT3=
EXTT4=
EXTT5=
EXTT6=
EXTT7=
EXTT8=
EXTT9=
PLAYORDER=
